<svg width="310" height="207" viewBox="0 0 310 207" fill="none" xmlns="http://www.w3.org/2000/svg">
<path d="M147.5 143.5C147.5 174.953 121.783 200.5 90 200.5C58.2165 200.5 32.5 174.953 32.5 143.5C32.5 112.047 58.2165 86.5 90 86.5C121.783 86.5 147.5 112.047 147.5 143.5ZM90 205.5C124.506 205.5 152.5 177.753 152.5 143.5C152.5 109.247 124.506 81.5 90 81.5C55.4939 81.5 27.5 109.247 27.5 143.5C27.5 177.753 55.4939 205.5 90 205.5Z" fill="#010101" stroke="white" stroke-width="3"/>
<path d="M90 145L5 195" stroke="white" stroke-width="7" stroke-linecap="square"/>
<ellipse cx="90" cy="143.5" rx="61" ry="60.5" fill="white"/>
<ellipse cx="91" cy="146.5" rx="45" ry="44.5" fill="white"/>
<ellipse cx="92" cy="145.5" rx="28" ry="27.5" stroke="white" stroke-width="2"/>
<ellipse cx="91" cy="145.5" rx="11" ry="10.5" stroke="white" stroke-width="2"/>
<path d="M90 145L5 195" stroke="white" stroke-width="2"/>
<path d="M92.7152 143.474L88.5557 149.582L85.4326 144.866L92.7152 143.474Z" fill="#0CCF89"/>
<path d="M149.5 143.5C149.5 176.073 122.873 202.5 90 202.5C57.1274 202.5 30.5 176.073 30.5 143.5C30.5 110.927 57.1274 84.5 90 84.5C122.873 84.5 149.5 110.927 149.5 143.5Z" fill="#0CA66E" stroke="#010101" stroke-width="3"/>
<path d="M90 202.5C122.873 202.5 149.5 176.073 149.5 143.5C149.5 110.927 122.873 84.5 90 84.5C57.1274 84.5 30.5 110.927 30.5 143.5C30.5 176.073 57.1274 202.5 90 202.5ZM150.5 143.5C150.5 176.633 123.417 203.5 90 203.5C56.5829 203.5 29.5 176.633 29.5 143.5C29.5 110.367 56.5829 83.5 90 83.5C123.417 83.5 150.5 110.367 150.5 143.5Z" stroke="#010101"/>
<path d="M134.5 146.5C134.5 170.232 115.04 189.5 91 189.5C66.9598 189.5 47.5 170.232 47.5 146.5C47.5 122.768 66.9598 103.5 91 103.5C115.04 103.5 134.5 122.768 134.5 146.5Z" fill="#0CCF89" stroke="#010101" stroke-width="3"/>
<path d="M118.5 145.5C118.5 159.834 106.661 171.5 92 171.5C77.3389 171.5 65.5 159.834 65.5 145.5C65.5 131.166 77.3389 119.5 92 119.5C106.661 119.5 118.5 131.166 118.5 145.5Z" fill="#0CA66E" stroke="#010101" stroke-width="3"/>
<path d="M100.5 145.5C100.5 150.406 96.3132 154.5 91 154.5C85.6868 154.5 81.5 150.406 81.5 145.5C81.5 140.594 85.6868 136.5 91 136.5C96.3132 136.5 100.5 140.594 100.5 145.5Z" fill="#0CCF89" stroke="#010101" stroke-width="3"/>
<path d="M141.03 19.3849V22.4458H116.244H113.464L113.252 25.2174L113.033 28.0882L113.024 28.2023V28.3167C113.024 28.3011 112.962 29.6818 113.038 31.5269C113.116 33.4224 113.336 35.9985 113.909 38.927C115.049 44.7556 117.623 52.1665 123.433 58.3253L123.441 58.3332C129.631 64.8477 137.964 68.4633 148.118 69.2783C154.562 82.2042 165.007 92.8626 177.887 99.5539L177.892 99.5564C182.258 101.814 186.912 103.679 191.776 104.985C192.962 108.902 195.75 112.158 199.409 113.946C199.854 116.251 200.499 120.562 200.358 125.59C200.187 131.676 198.874 138.514 194.964 144.158H173.899H170.899V147.158V152.304V155.304H173.899H175.284V168.479H163.596H160.596V171.479V176.679V179.679H163.596H163.61V192.8H156.197H153.197V195.8V201V204H156.197H260.163H263.163V201V195.8V192.8H260.163H252.75V179.679H252.764H255.764V176.679V171.479V168.479H252.764H240.967V155.358H242.351H245.351V152.358V147.213V144.213H242.351H225.277C221.243 138.471 219.931 131.59 219.791 125.511C219.675 120.484 220.365 116.198 220.83 113.93C224.432 112.123 227.184 108.91 228.364 105.032C239.557 101.999 249.625 96.2514 257.734 88.5599L257.738 88.5561C263.544 83.028 268.422 76.5538 272.033 69.268C282.067 68.4097 290.398 64.8513 296.542 58.3276C302.379 52.1701 304.968 44.7598 306.109 38.927C307.249 33.1026 306.987 28.6406 306.944 28.0882L141.03 19.3849ZM141.03 19.3849C136.941 18.8572 133.796 15.379 133.796 11.2C133.796 8.9656 134.737 6.85004 136.221 5.38294C137.693 3.92851 139.758 3 142.057 3H277.975C282.578 3 286.291 6.71344 286.291 11.2542C286.291 13.4886 285.35 15.6041 283.865 17.0712C282.629 18.2935 280.973 19.1443 279.112 19.3848V22.4458H303.734H306.513L306.725 25.2174L306.944 28.0839L141.03 19.3849ZM141.085 42.4542V42.5347L141.089 42.6151C141.339 47.2602 142.042 51.7945 143.181 56.1515C138.682 54.9615 135.089 52.8852 132.335 50.0252C127.932 45.3646 126.231 39.1699 125.613 34.6208H141.03V39.15C141.03 39.7288 141.044 40.3151 141.058 40.8585L141.058 40.8761C141.072 41.4382 141.085 41.9559 141.085 42.4542ZM277.005 56.1123C278.03 52.1846 278.697 48.1337 278.974 43.9619L278.976 43.9607L278.982 43.8483C279.01 43.4116 279.034 42.9735 279.054 42.5342L279.194 39.4H279.112C279.112 39.3092 279.112 39.2186 279.112 39.1283V39.0958V34.6208H294.417C293.799 39.1393 292.097 45.277 287.687 49.9814C284.973 52.8379 281.432 54.9335 277.005 56.1123Z" fill="#0CCF89" stroke="white" stroke-width="6" stroke-miterlimit="10"/>
<path d="M303.953 28.3167L303.734 25.4458H276.112V16.4542H278.03C279.51 16.4542 280.825 15.8583 281.757 14.9375C282.688 14.0167 283.291 12.6625 283.291 11.2542C283.291 8.38333 280.934 6 277.975 6H142.057C140.577 6 139.262 6.59583 138.33 7.51667C137.399 8.4375 136.796 9.79167 136.796 11.2C136.796 14.0708 139.152 16.4542 142.112 16.4542H144.03V25.4458H116.244L116.024 28.3167C116.024 29.0208 115.038 45.0542 125.615 56.2667C131.534 62.4958 139.7 65.9083 150.059 66.3958C156.142 79.45 166.446 90.2292 179.27 96.8917C183.983 99.3292 189.025 101.279 194.287 102.525C194.944 106.804 197.959 110.379 202.014 111.788C202.727 114.767 206.728 134.05 196.479 147.158H173.899V152.304H178.284V171.479H163.596V176.679H166.61V195.8H156.197V201H260.163V195.8H249.75V176.679H252.764V171.479H237.967V152.358H242.351V147.213H223.772C213.25 133.888 217.524 114.658 218.237 111.788C222.238 110.325 225.197 106.804 225.855 102.579C237.254 99.8167 247.503 94.1292 255.669 86.3833C261.643 80.6958 266.575 73.9792 270.083 66.3958C280.332 65.8542 288.498 62.4958 294.362 56.2667C304.994 45.0542 304.008 29.0208 303.953 28.3167ZM130.164 52.0958C123.862 45.4333 122.546 36.225 122.327 31.6208H144.03V39.15C144.03 40.2333 144.085 41.3708 144.085 42.4542C144.414 48.575 145.565 54.4792 147.483 60.0042C140.194 59.1375 134.384 56.4833 130.164 52.0958ZM289.868 52.0417C285.703 56.4292 279.948 59.1375 272.714 59.95C274.632 54.3708 275.783 48.5208 276.057 42.4V42.2917C276.112 41.2083 276.112 40.1792 276.112 39.0958V31.6208H297.705C297.486 36.225 296.17 45.325 289.868 52.0417Z" stroke="#010101" stroke-width="3" stroke-miterlimit="10"/>
<path d="M90 145L5 195" stroke="#010101" stroke-width="2"/>
<path d="M92.716 143.474L88.5565 149.582L85.4334 144.866L92.716 143.474Z" fill="#010101"/>
</svg>
