<svg width="294" height="232" viewBox="0 0 294 232" fill="none" xmlns="http://www.w3.org/2000/svg">
<rect x="153.704" y="204.771" width="58.8689" height="22.4262" rx="2.80328" fill="#0CCF89" stroke="white" stroke-width="3.7377" stroke-linejoin="round"/>
<rect x="153.704" y="174.869" width="33.6393" height="22.4262" rx="2.80328" fill="#0CCF89" stroke="white" stroke-width="3.7377" stroke-linejoin="round"/>
<rect x="153.704" y="145.902" width="58.8689" height="22.4262" rx="2.80328" fill="#0CCF89" stroke="white" stroke-width="3.7377" stroke-linejoin="round"/>
<rect x="219.114" y="145.902" width="33.6393" height="22.4262" rx="2.80328" fill="#0CCF89" stroke="white" stroke-width="3.7377" stroke-linejoin="round"/>
<rect x="258.36" y="145.902" width="33.6393" height="22.4262" rx="2.80328" fill="#0CCF89" stroke="white" stroke-width="3.7377" stroke-linejoin="round"/>
<rect x="248.082" y="174.869" width="42.9836" height="22.4262" rx="2.80328" fill="#0CCF89" stroke="white" stroke-width="3.7377" stroke-linejoin="round"/>
<rect x="192.95" y="174.869" width="49.5246" height="22.4262" rx="2.80328" fill="#0CCF89" stroke="white" stroke-width="3.7377" stroke-linejoin="round"/>
<rect x="219.114" y="204.771" width="33.6393" height="22.4262" rx="2.80328" fill="#0CCF89" stroke="white" stroke-width="3.7377" stroke-linejoin="round"/>
<rect x="257.426" y="204.771" width="33.6393" height="21.4918" rx="2.80328" fill="#0CCF89" stroke="white" stroke-width="3.7377" stroke-linejoin="round"/>
<path d="M131.278 193.557C131.278 197.677 127.978 201.033 123.927 201.033H83.4979C79.4475 201.033 76.1471 197.677 76.1471 193.557C76.1471 189.438 79.4475 186.082 83.4979 186.082H123.927C127.978 186.082 131.278 189.438 131.278 193.557Z" fill="#0CCF89" stroke="white" stroke-width="3.7377" stroke-miterlimit="10" stroke-linejoin="round"/>
<path d="M128.475 204.771V206.403C128.475 213.749 122.964 219.908 115.641 220.947C114.282 226.29 109.45 230 103.713 230C98.0506 230 93.2189 226.29 91.7845 220.947C84.4615 219.908 78.9504 213.749 78.9504 206.403V204.771H128.475Z" fill="#0CCF89" stroke="white" stroke-width="3.7377" stroke-miterlimit="10" stroke-linejoin="round"/>
<path d="M160.713 100.527C160.713 113.447 156.533 125.679 148.477 135.923C142.777 143.186 136.089 152.971 130.617 162.221V181.41H76.5047V161.686C71.3367 152.818 65.2566 143.95 58.9486 135.847C50.9686 125.679 46.7126 113.447 46.7126 100.451C46.7126 68.8014 72.3247 43.1147 103.713 43.1147C135.101 43.1912 160.713 68.8778 160.713 100.527Z" fill="#0CCF89" stroke="white" stroke-width="3.7377" stroke-miterlimit="10" stroke-linejoin="round"/>
<rect x="154.639" y="205.705" width="57" height="20.5574" rx="1.86885" fill="#0CCF89" stroke="#010101" stroke-width="1.86885"/>
<rect x="154.639" y="175.803" width="31.7705" height="20.5574" rx="1.86885" fill="#0CA66E" stroke="#010101" stroke-width="1.86885"/>
<rect x="154.639" y="146.836" width="57" height="20.5574" rx="1.86885" fill="#0CCF89" stroke="#010101" stroke-width="1.86885"/>
<rect x="220.049" y="146.836" width="31.7705" height="20.5574" rx="1.86885" fill="#0CA66E" stroke="#010101" stroke-width="1.86885"/>
<rect x="259.294" y="146.836" width="31.7705" height="20.5574" rx="1.86885" fill="#0CCF89" stroke="#010101" stroke-width="1.86885"/>
<rect x="249.016" y="175.803" width="41.1148" height="20.5574" rx="1.86885" fill="#0CCF89" stroke="#010101" stroke-width="1.86885"/>
<rect x="193.885" y="175.803" width="47.6557" height="20.5574" rx="1.86885" fill="#0CCF89" stroke="#010101" stroke-width="1.86885"/>
<rect x="220.049" y="205.705" width="31.7705" height="20.5574" rx="1.86885" fill="#0CCF89" stroke="#010101" stroke-width="1.86885"/>
<rect x="258.36" y="205.705" width="31.7705" height="19.6229" rx="1.86885" fill="#0CA66E" stroke="#010101" stroke-width="1.86885"/>
<path d="M130.343 193.557C130.343 197.175 127.446 200.098 123.926 200.098H83.4968C79.9771 200.098 77.0804 197.175 77.0804 193.557C77.0804 189.939 79.9771 187.016 83.4968 187.016H123.926C127.446 187.016 130.343 189.939 130.343 193.557Z" fill="#0CA66E" stroke="#010101" stroke-width="1.86885" stroke-miterlimit="10"/>
<path d="M79.8836 206.403V205.705H127.539V206.403C127.539 213.267 122.387 219.046 115.508 220.022L114.888 220.11L114.734 220.717C113.484 225.63 109.038 229.065 103.712 229.065C98.4668 229.065 94.0092 225.634 92.6858 220.705L92.5257 220.108L91.9146 220.022C85.0357 219.046 79.8836 213.267 79.8836 206.403Z" fill="#0CCF89" stroke="#010101" stroke-width="1.86885" stroke-miterlimit="10"/>
<path d="M147.742 135.345L147.741 135.346C142.014 142.643 135.303 152.463 129.812 161.746L129.682 161.966V162.221V180.475H77.4388V161.686V161.434L77.3117 161.216C72.1207 152.308 66.0168 143.406 59.6858 135.273L59.6835 135.27C51.8321 125.266 47.6468 113.237 47.6468 100.451C47.6468 69.3135 72.8442 44.0498 103.711 44.0492C134.581 44.125 159.778 69.3904 159.778 100.527C159.778 113.239 155.667 125.267 147.742 135.345Z" fill="#0CCF89" stroke="#010101" stroke-width="1.86885" stroke-miterlimit="10"/>
<path d="M103.712 30.0328C102.901 30.0328 102.311 29.3546 102.311 28.601V3.43178C102.311 2.60286 102.975 2 103.712 2C104.45 2 105.114 2.67821 105.114 3.43178V28.5256C105.114 29.3546 104.524 30.0328 103.712 30.0328Z" fill="#0CCF89" stroke="white" stroke-width="3.7377" stroke-miterlimit="10"/>
<path d="M143.079 39.377C142.84 39.377 142.522 39.3018 142.283 39.1514C141.566 38.7755 141.327 37.8732 141.805 37.1965L155.58 15.7677C156.058 15.091 156.933 14.8655 157.65 15.3166C158.367 15.6926 158.605 16.5948 158.128 17.2715L144.353 38.7003C144.035 39.1514 143.557 39.377 143.079 39.377Z" fill="#0CCF89" stroke="white" stroke-width="3.7377" stroke-miterlimit="10"/>
<path d="M167.303 70.2131C166.773 70.2131 166.244 69.902 166.017 69.4352C165.638 68.735 165.941 67.8015 166.622 67.4125L188.949 55.4318C189.63 55.0428 190.538 55.354 190.916 56.0542C191.295 56.7543 190.992 57.6879 190.311 58.0769L167.984 70.0576C167.757 70.1353 167.53 70.2131 167.303 70.2131Z" fill="#0CCF89" stroke="white" stroke-width="3.7377" stroke-miterlimit="10"/>
<path d="M199.915 106.656H199.839L174.697 104.995C173.864 104.916 173.258 104.204 173.334 103.414C173.409 102.544 174.091 101.911 174.848 101.99L199.99 103.651C200.823 103.73 201.429 104.442 201.354 105.232C201.354 106.023 200.672 106.656 199.915 106.656Z" fill="#0CCF89" stroke="white" stroke-width="3.7377" stroke-miterlimit="10"/>
<path d="M61.627 39.377C61.1006 39.377 60.6494 39.1514 60.4238 38.7003L47.4144 17.2715C46.9632 16.5948 47.1888 15.6926 47.8656 15.3166C48.5423 14.8655 49.4447 15.091 49.8207 15.7677L62.8301 37.1965C63.2813 37.8732 63.0557 38.7755 62.3789 39.1514C62.1533 39.3018 61.8525 39.377 61.627 39.377Z" fill="#0CCF89" stroke="white" stroke-width="3.7377" stroke-miterlimit="10"/>
<path d="M36.4377 70.2131C36.219 70.2131 36.0004 70.1358 35.7817 70.0584L14.2821 58.0623C13.6261 57.6753 13.3346 56.7466 13.699 56.0501C14.0634 55.3535 14.938 55.0439 15.5939 55.4309L37.0936 67.3496C37.7495 67.7365 38.041 68.6653 37.6766 69.3618C37.3851 69.9036 36.9478 70.2131 36.4377 70.2131Z" fill="#0CCF89" stroke="white" stroke-width="3.7377" stroke-miterlimit="10"/>
<path d="M3.82058 106.656C3.03804 106.656 2.33375 106.023 2.33375 105.232C2.2555 104.363 2.88153 103.651 3.74233 103.651L29.7227 101.99C30.5835 101.911 31.2878 102.544 31.2878 103.414C31.366 104.284 30.74 104.995 29.8792 104.995L3.89883 106.656C3.89883 106.656 3.89883 106.656 3.82058 106.656Z" fill="#0CCF89" stroke="white" stroke-width="3.7377" stroke-miterlimit="10"/>
<path d="M19.7261 158.049C19.2586 158.049 18.7912 157.828 18.4796 157.46C18.0122 156.797 18.168 155.914 18.8691 155.472L40.1369 141.482C40.838 141.04 41.7729 141.187 42.2403 141.85C42.7077 142.513 42.5519 143.396 41.8508 143.838L20.583 157.828C20.3493 157.976 20.0377 158.049 19.7261 158.049Z" fill="#0CCF89" stroke="white" stroke-width="3.7377" stroke-miterlimit="10"/>
<path d="M103.712 30.0328C102.901 30.0328 102.311 29.3546 102.311 28.601V3.43178C102.311 2.60286 102.975 2 103.712 2C104.45 2 105.114 2.67821 105.114 3.43178V28.5256C105.114 29.3546 104.524 30.0328 103.712 30.0328Z" fill="#0CCF89" stroke="#010101" stroke-width="0.934426" stroke-miterlimit="10"/>
<path d="M143.079 39.377C142.84 39.377 142.522 39.3018 142.283 39.1514C141.566 38.7755 141.327 37.8732 141.805 37.1965L155.58 15.7677C156.058 15.091 156.933 14.8655 157.65 15.3166C158.367 15.6926 158.605 16.5948 158.128 17.2715L144.353 38.7003C144.035 39.1514 143.557 39.377 143.079 39.377Z" fill="#0CCF89" stroke="#010101" stroke-width="0.934426" stroke-miterlimit="10"/>
<path d="M167.303 70.2131C166.773 70.2131 166.244 69.902 166.017 69.4352C165.638 68.735 165.941 67.8015 166.622 67.4125L188.949 55.4318C189.63 55.0428 190.538 55.354 190.916 56.0542C191.295 56.7543 190.992 57.6879 190.311 58.0769L167.984 70.0576C167.757 70.1353 167.53 70.2131 167.303 70.2131Z" fill="#0CCF89" stroke="#010101" stroke-width="0.934426" stroke-miterlimit="10"/>
<path d="M199.915 106.656H199.839L174.697 104.995C173.864 104.916 173.258 104.204 173.334 103.414C173.409 102.544 174.091 101.911 174.848 101.99L199.99 103.651C200.823 103.73 201.429 104.442 201.354 105.232C201.354 106.023 200.672 106.656 199.915 106.656Z" fill="#0CCF89" stroke="#010101" stroke-width="0.934426" stroke-miterlimit="10"/>
<path d="M61.627 39.377C61.1006 39.377 60.6494 39.1514 60.4238 38.7003L47.4144 17.2715C46.9632 16.5948 47.1888 15.6926 47.8656 15.3166C48.5423 14.8655 49.4447 15.091 49.8207 15.7677L62.8301 37.1965C63.2813 37.8732 63.0557 38.7755 62.3789 39.1514C62.1533 39.3018 61.8525 39.377 61.627 39.377Z" fill="#0CCF89" stroke="#010101" stroke-width="0.934426" stroke-miterlimit="10"/>
<path d="M36.4377 70.2131C36.219 70.2131 36.0004 70.1358 35.7817 70.0584L14.2821 58.0623C13.6261 57.6753 13.3346 56.7466 13.699 56.0501C14.0634 55.3535 14.938 55.0439 15.5939 55.4309L37.0936 67.3496C37.7495 67.7365 38.041 68.6653 37.6766 69.3618C37.3851 69.9036 36.9478 70.2131 36.4377 70.2131Z" fill="#0CCF89" stroke="#010101" stroke-width="0.934426" stroke-miterlimit="10"/>
<path d="M3.82058 106.656C3.03804 106.656 2.33375 106.023 2.33375 105.232C2.2555 104.363 2.88153 103.651 3.74233 103.651L29.7227 101.99C30.5835 101.911 31.2878 102.544 31.2878 103.414C31.366 104.284 30.74 104.995 29.8792 104.995L3.89883 106.656C3.89883 106.656 3.89883 106.656 3.82058 106.656Z" fill="#0CCF89" stroke="#010101" stroke-width="0.934426" stroke-miterlimit="10"/>
<path d="M19.7261 158.049C19.2586 158.049 18.7912 157.828 18.4796 157.46C18.0122 156.797 18.168 155.914 18.8691 155.472L40.1369 141.482C40.838 141.04 41.7729 141.187 42.2403 141.85C42.7077 142.513 42.5519 143.396 41.8508 143.838L20.583 157.828C20.3493 157.976 20.0377 158.049 19.7261 158.049Z" fill="#0CCF89" stroke="#010101" stroke-width="0.934426" stroke-miterlimit="10"/>
</svg>
